PathFileType	4	(X/Y/Z)	C:/Users/beibeiliu/ov580/test_trc/User3\sequence.38_training_dense_right.trc
DataRate	CameraRate	NumFrames	NumMarkers	Units	OrigDataRate	OrigDataStartFrame	OrigNumFrames
120	120	8	19	mm	120	63	93
Frame#	Time	ThumbCMC			ThumbMCP			ThumbIP			ThumbTip			IndexMCP			IndexPIP			IndexTip			MiddleMCP			MiddlePIP			MiddleTip			RingMCP			RingPIP			RingTip			PinkyMCP			PinkyPIP			PinkyTip			BackHand1			BackHand2			BackHand3	
		X0	Y0	Z0	X1	Y1	Z1	X2	Y2	Z2	X3	Y3	Z3	X4	Y4	Z4	X5	Y5	Z5	X6	Y6	Z6	X7	Y7	Z7	X8	Y8	Z8	X9	Y9	Z9	X10	Y10	Z10	X11	Y11	Z11	X12	Y12	Z12	X13	Y13	Z13	X14	Y14	Z14	X15	Y15	Z15	X16	Y16	Z16	X17	Y17	Z17	X18	Y18	Z18	
62	0.516667	180.862	22.3951	8.96016	160.645	27.239	-19.3541	146.982	23.6571	-50.0578	134.834	14.0679	-65.7108	201.078	-11.597	-53.7141	192.629	-11.8379	-81.5271	176.807	-4.16317	-106.211	188.757	-30.7099	-61.71	169.689	-20.2991	-83.9658	133.014	-5.46158	-82.1587	184.912	-48.0855	-45.4113	174.437	-45.9947	-76.8414	145.188	-35.8775	-89.1457	173.526	-62.022	-22.7368	173.932	-70.3229	-49.2448	161.234	-66.8944	-73.8294	191.316	-40.3628	7.9203	189.055	-38.8338	38.2811	204.77	-10.2467	12.699	
63	0.525	187.081	16.754	7.87631	168.834	22.3313	-20.8149	155.732	21.9079	-48.8517	140.576	11.2226	-68.316	201.529	-21.486	-53.4675	196.139	-15.9527	-85.0304	175.953	-13.2189	-104.614	186.474	-37.1572	-57.2357	169.872	-26.6276	-80.9638	133.711	-4.27836	-79.2625	180.344	-54.242	-43.0586	169.405	-54.2142	-71.9197	146.105	-39.6972	-85.5753	166.982	-65.1455	-21.3305	167.382	-72.896	-44.0777	154.124	-73.3331	-69.7713	189.602	-48.7754	6.77633	186.421	-42.1154	39.6772	207.184	-16.7509	13.5068	
64	0.533333	192.677	11.8654	13.9021	177.669	21.4435	-22.4981	164.493	24.7479	-46.2477	148.412	13.8119	-66.4025	204.173	-26.4419	-52.7477	194.766	-22.8557	-85.9592	177.657	-16.6675	-105.013	186.06	-40.0763	-57.5865	166.796	-30.7355	-81.6412	142.591	-2.20591	-84.9278	174.006	-56.9878	-42.995	160.299	-56.7734	-74.2773	144.996	-40.0994	-87.6194	158.888	-64.5471	-21.8599	152.824	-75.3394	-45.2882	138.55	-73.9986	-67.237	181.614	-53.4082	7.00237	181.862	-47.3871	39.2616	205.063	-26.2865	16.2974	
65	0.541667	199.166	7.25005	11.2358	184.517	18.6274	-18.5766	173.815	25.5988	-45.4398	155.725	21.6041	-62.541	200.047	-33.2341	-53.0255	189.607	-30.7182	-84.1482	179.657	-20.7661	-104.199	177.406	-47.4345	-59.8869	166.019	-34.2292	-83.2914	148.062	-4.16712	-92.2168	167.072	-56.7248	-45.9491	156.604	-55.0009	-72.8703	140.482	-35.8883	-91.4855	148.199	-62.5494	-23.8502	135.546	-70.6442	-46.5226	125.449	-64.7668	-66.0313	174.914	-54.09	9.30217	177.119	-46.9399	39.2351	202.674	-36.5601	13.536	
66	0.55	201.707	3.70839	10.9895	188.323	18.1786	-16.7664	176.286	25.0309	-47.2624	157.429	21.7763	-61.1816	194.378	-36.5485	-56.1774	192.115	-31.8528	-82.9058	178.365	-18.9582	-108.133	175.019	-47.0557	-56.3423	163.135	-33.7913	-84.2772	143.548	-1.12978	-92.8813	159.364	-58.5392	-46.9923	147.793	-53.7217	-74.263	136.273	-34.5243	-90.0509	141.27	-59.9639	-22.4326	130.343	-66.0478	-41.7407	113.027	-58.2833	-65.1364	168.581	-57.6704	6.28247	171.293	-49.9425	36.6961	199.625	-37.8773	15.5109	
67	0.558333	202.656	1.60962	12.4591	188.217	14.8037	-16.9184	173.508	17.8506	-44.5508	157.271	19.5814	-60.5552	192.966	-38.2875	-54.8687	188.89	-31.4794	-83.6778	174.35	-19.9343	-104.835	174.795	-43.7358	-60.1839	160.646	-30.2697	-82.026	143.326	1.79379	-85.5704	157.653	-57.8011	-41.1762	148.207	-53.5286	-70.2248	133.589	-30.5663	-85.7371	137.698	-59.8494	-20.1668	128.403	-65.0718	-46.7735	113.375	-57.2785	-64.1678	169.317	-56.5354	9.70202	170.027	-53.2599	40.8035	201.495	-40.2648	13.2338	
68	0.566667	200.942	1.28656	13.2435	187.428	13.9399	-14.1188	174.678	22.7156	-44.8335	156.427	19.5768	-61.032	192.746	-37.2258	-52.4573	185.949	-33.5274	-81.0635	176.473	-17.676	-103.416	171.055	-45.586	-60.2643	158.884	-28.548	-80.5706	141.477	4.81304	-81.5856	156.458	-58.6541	-42.9653	148.343	-51.5271	-70.4799	133.135	-25.2231	-85.8903	139.732	-60.3271	-22.0311	130.817	-64.8008	-42.0195	115.722	-55.0861	-67.1541	171.715	-56.2747	9.4278	171.311	-53.9552	36.9245	197.721	-42.4403	13.9894	
69	0.575	197.169	-1.31702	9.88691	186.485	14.8817	-15.6052	172.595	21.627	-46.5471	155.625	21.7338	-59.4456	195.104	-34.8864	-58.4103	188.251	-29.6213	-84.286	176.99	-16.1952	-104.915	173.578	-44.7408	-59.2772	161.257	-27.8115	-83.415	138.571	2.80093	-83.3237	157.831	-57.3655	-42.5056	149.422	-51.8684	-70.6419	128.859	-28.5988	-84.9177	141.427	-60.2053	-25.1313	125.931	-66.2652	-41.5204	113.077	-56.7146	-63.1964	168.935	-57.8182	6.20664	175.133	-50.6924	38.0115	200.34	-37.2382	15.8213	
